#!OML:ASF F:\VICON\USERDATA\INSTALL\Justin_Nancy\Justin_Nancy.ASF
:FULLY-SPECIFIED
:DEGREES

84
root 1.07008 17.0739 -7.57334 0.398064 -0.424463 8.09302
lowerback 5.66093 -1.36956 -8.51952
upperback 0.428386 -2.33896 0.890576
thorax -2.35599 -1.07742 5.89125
lowerneck -15.6846 -1.94833 -9.31736
upperneck 23.3228 -0.910823 2.59833
head 10.102 -0.948682 2.35826
rclavicle 2.95195e-014 2.38542e-015
rhumerus -33.8661 -8.51127 -79.0914
rradius 30.471
rwrist 7.15068
rhand -12.4812 12.0373
rfingers 7.12502
rthumb 13.5933 -17.4989
lclavicle 2.95195e-014 2.38542e-015
lhumerus -27.9938 -0.940844 85.6761
lradius 33.3095
lwrist -5.81552
lhand -12.6225 26.3659
lfingers 7.12502
lthumb 13.457 55.9112
rfemur -35.6751 1.05905 11.2749
rtibia 34.606
rfoot -5.23448 -12.9415
rtoes -3.57846
lfemur 2.92486 0.0367023 -34.0698
ltibia 24.0369
lfoot -19.9637 4.7466
ltoes -1.03958
85
root 1.05205 17.064 -7.32736 0.575496 -0.113185 8.15502
lowerback 5.529 -1.55131 -8.77368
upperback 0.491495 -2.57916 0.984431
thorax -2.161 -1.20608 6.14137
lowerneck -15.8183 -1.92621 -9.3034
upperneck 23.1164 -0.848594 2.51563
head 10.0491 -0.922451 2.33196
rclavicle 1.95803e-014 -1.19271e-014
rhumerus -34.0792 -8.52668 -79.0337
rradius 30.2153
rwrist 7.41528
rhand -12.4796 12.1362
rfingers 7.12502
rthumb 13.5948 -17.3999
lclavicle 1.95803e-014 -1.19271e-014
lhumerus -27.649 -1.72196 85.6753
lradius 34.7765
lwrist -5.12409
lhand -12.7101 26.6502
lfingers 7.12502
lthumb 13.3726 56.2011
rfemur -35.5015 1.37207 10.9074
rtibia 31.146
rfoot -4.90102 -13.8812
rtoes -3.78727
lfemur 4.27673 0.0753637 -33.9717
ltibia 22.8708
lfoot -19.3702 4.29143
ltoes 2.64033
86
root 1.03948 17.0506 -7.0828 0.826035 0.387841 8.39182
lowerback 5.58916 -1.75921 -9.09098
upperback 0.336085 -2.88754 1.02234
thorax -2.2878 -1.34508 6.38548
lowerneck -15.9642 -1.86671 -9.29701
upperneck 23.2512 -0.7312 2.44107
head 10.1179 -0.879708 2.32162
rclavicle -8.84592e-015 -3.33958e-014
rhumerus -34.8635 -8.2932 -78.9008
rradius 30.3502
rwrist 7.34988
rhand -12.3836 11.806
rfingers 7.12502
rthumb 13.6873 -17.7239
lclavicle -8.84592e-015 -3.33958e-014
lhumerus -27.5956 -2.6042 85.6894
lradius 36.1902
lwrist -4.5716
lhand -13.0559 26.9632
lfingers 7.12502
lthumb 13.0393 56.5356
rfemur -35.3193 1.4078 10.3194
rtibia 27.7013
rfoot -5.16516 -14.527
rtoes -2.5826
lfemur 5.5629 0.106121 -33.9884
ltibia 21.6833
lfoot -18.9287 3.66787
ltoes 3.48987
87
root 1.02706 17.032 -6.83215 1.09395 1.08643 8.46409
lowerback 5.37544 -2.04825 -9.15692
upperback 0.320846 -3.2555 1.03699
thorax -2.11436 -1.53635 6.44735
lowerneck -16.2586 -1.85178 -9.26833
upperneck 23.4749 -0.684382 2.44012
head 10.2514 -0.860905 2.32576
rclavicle 3.03147e-014 8.74653e-015
rhumerus -35.3301 -8.63291 -78.7076
rradius 30.0023
rwrist 8.11143
rhand -12.5016 12.4591
rfingers 7.12502
rthumb 13.5736 -17.0785
lclavicle 3.03147e-014 8.74653e-015
lhumerus -27.1846 -3.42925 85.5717
lradius 37.3074
lwrist -4.24086
lhand -13.7185 25.8771
lfingers 7.12502
lthumb 12.4005 55.4892
rfemur -35.013 1.38444 9.84548
rtibia 24.3271
rfoot -5.56192 -15.163
rtoes -2.35781
lfemur 6.86956 -0.109356 -33.7764
ltibia 20.5284
lfoot -19.0382 2.69382
ltoes 3.02142
88
root 1.00847 17.011 -6.58322 1.29782 1.78741 8.61871
lowerback 5.16628 -2.29573 -9.4137
upperback 0.377761 -3.57554 1.07144
thorax -1.86258 -1.70907 6.63008
lowerneck -16.3299 -1.86729 -9.30154
upperneck 23.4259 -0.688506 2.43738
head 10.248 -0.864435 2.3291
rclavicle -1.13307e-014 -8.74653e-015
rhumerus -35.5445 -9.35666 -78.3036
rradius 29.2468
rwrist 9.22109
rhand -12.7521 13.3553
rfingers 7.12502
rthumb 13.3321 -16.1982
lclavicle -1.13307e-014 -8.74653e-015
lhumerus -26.6189 -4.05702 85.4536
lradius 38.3315
lwrist -3.96664
lhand -14.6468 25.4023
lfingers 7.12502
lthumb 11.5054 55.0666
rfemur -34.5938 1.4749 9.24465
rtibia 21.0871
rfoot -5.88685 -15.7832
rtoes -4.17222
lfemur 8.22184 -0.294661 -33.5869
ltibia 19.4032
lfoot -19.5066 1.30762
ltoes 0.426326
89
root 0.989871 16.9995 -6.33596 1.49846 2.34384 8.61889
lowerback 5.18523 -2.50207 -9.54957
upperback 0.227441 -3.86543 1.15663
thorax -1.96314 -1.84173 6.81576
lowerneck -15.8089 -1.87241 -9.24993
upperneck 23.0806 -0.727488 2.2728
head 10.0272 -0.889505 2.2522
rclavicle -2.51463e-014 -8.74653e-015
rhumerus -36.1966 -9.68166 -78.0016
rradius 28.9353
rwrist 9.70777
rhand -12.7359 12.4495
rfingers 7.12502
rthumb 13.3477 -17.103
lclavicle -2.51463e-014 -8.74653e-015
lhumerus -26.3964 -4.49586 85.2794
lradius 39.3156
lwrist -3.76965
lhand -14.6843 25.6504
lfingers 7.12502
lthumb 11.4693 55.3167
rfemur -34.0473 1.82848 8.74088
rtibia 17.9703
rfoot -6.33733 -16.2052
rtoes -5.21959
lfemur 9.4478 -0.410214 -33.2293
ltibia 18.4036
lfoot -19.7265 0.0208628
ltoes -3.16424
90
root 0.966446 16.9883 -6.08379 1.65223 2.8594 8.53949
lowerback 5.13033 -2.64027 -9.63299
upperback 0.197588 -4.04832 1.23411
thorax -1.9181 -1.93364 6.94989
lowerneck -15.7651 -1.95816 -9.12938
upperneck 22.9248 -0.864168 2.18678
head 9.9707 -0.947905 2.18179
rclavicle -5.66536e-015 1.27222e-014
rhumerus -36.8154 -10.0004 -77.8054
rradius 28.9953
rwrist 9.77492
rhand -12.8242 11.4869
rfingers 7.12502
rthumb 13.2626 -18.0711
lclavicle -5.66536e-015 1.27222e-014
lhumerus -25.9699 -5.08562 85.124
lradius 40.1597
lwrist -3.55822
lhand -14.8909 25.8527
lfingers 7.12502
lthumb 11.27 55.5299
rfemur -33.4143 2.76436 8.09196
rtibia 15.1543
rfoot -6.44455 -16.9454
rtoes -5.60014
lfemur 10.5934 -0.597381 -32.7944
ltibia 17.5399
lfoot -19.3572 -1.09718
ltoes -4.72458
91
root 0.943021 16.9705 -5.8272 1.64768 3.18933 8.32209
lowerback 5.04199 -2.76187 -9.60876
upperback 0.255917 -4.19395 1.37736
thorax -1.77031 -2.01699 7.08519
lowerneck -15.9156 -1.928 -9.10306
upperneck 22.9752 -0.817737 2.2081
head 10.0138 -0.92253 2.19158
rclavicle 3.37934e-014 1.66979e-014
rhumerus -37.2588 -10.4718 -77.495
rradius 28.8497
rwrist 10.2912
rhand -12.6273 11.1918
rfingers 7.12502
rthumb 13.4525 -18.3538
lclavicle 3.37934e-014 1.66979e-014
lhumerus -25.6818 -5.36065 84.973
lradius 41.033
lwrist -3.47836
lhand -15.4507 25.3965
lfingers 7.12502
lthumb 10.73 55.1024
rfemur -32.6184 3.71651 7.70851
rtibia 12.6919
rfoot -6.65152 -17.2937
rtoes -5.36669
lfemur 11.7996 -0.730976 -32.269
ltibia 16.9178
lfoot -18.9701 -1.91535
ltoes -6.49992
